<svg xmlns="http://www.w3.org/2000/svg" viewBox="0 0 340 660" width="340" height="660" style="display:block; margin:20px auto;">
  <defs>
    <marker id="ah" viewBox="0 0 10 10" refX="9" refY="5" markerWidth="6" markerHeight="6" orient="auto-start-reverse">
      <path d="M0 0L10 5L0 10z" fill="#999"/>
    </marker>
  </defs>
  <rect width="340" height="660" fill="#222"/>

  <!-- Input label -->
  <text x="140" y="20" text-anchor="middle" fill="#ccc" font-size="13" font-family="monospace">x (seq_len, 512)</text>

  <!-- Arrow: input -> RMSNorm1 -->
  <line x1="140" y1="28" x2="140" y2="46" stroke="#999" stroke-width="1.5" marker-end="url(#ah)"/>

  <!-- Residual 1: fork right, down, back left to Add1 -->
  <line x1="140" y1="36" x2="280" y2="36" stroke="#555" stroke-width="1.5" stroke-dasharray="5,4"/>
  <line x1="280" y1="36" x2="280" y2="306" stroke="#555" stroke-width="1.5" stroke-dasharray="5,4"/>
  <line x1="280" y1="306" x2="157" y2="306" stroke="#555" stroke-width="1.5" stroke-dasharray="5,4" marker-end="url(#ah)"/>
  <text x="290" y="175" fill="#666" font-size="10" font-family="sans-serif" transform="rotate(90,290,175)">residual</text>

  <!-- RMSNorm1 -->
  <rect x="60" y="49" width="160" height="30" rx="5" fill="#333" stroke="#777" stroke-width="1"/>
  <text x="140" y="69" text-anchor="middle" fill="#ccc" font-size="12" font-family="sans-serif">RMSNorm 1</text>
  <line x1="140" y1="79" x2="140" y2="97" stroke="#999" stroke-width="1.5" marker-end="url(#ah)"/>

  <!-- QKV Proj -->
  <rect x="60" y="100" width="160" height="30" rx="5" fill="#1e2d4d" stroke="#4477bb" stroke-width="1"/>
  <text x="140" y="120" text-anchor="middle" fill="#aaccee" font-size="12" font-family="sans-serif">QKV Projection (GQA)</text>
  <line x1="140" y1="130" x2="140" y2="148" stroke="#999" stroke-width="1.5" marker-end="url(#ah)"/>

  <!-- RoPE -->
  <rect x="60" y="151" width="160" height="30" rx="5" fill="#2d1e4d" stroke="#7755bb" stroke-width="1"/>
  <text x="140" y="171" text-anchor="middle" fill="#ccaaee" font-size="12" font-family="sans-serif">RoPE (Q and K)</text>
  <line x1="140" y1="181" x2="140" y2="199" stroke="#999" stroke-width="1.5" marker-end="url(#ah)"/>

  <!-- Causal Attn -->
  <rect x="60" y="202" width="160" height="30" rx="5" fill="#1e2d4d" stroke="#4477bb" stroke-width="1"/>
  <text x="140" y="222" text-anchor="middle" fill="#aaccee" font-size="12" font-family="sans-serif">Causal Attention</text>
  <line x1="140" y1="232" x2="140" y2="250" stroke="#999" stroke-width="1.5" marker-end="url(#ah)"/>

  <!-- Output Proj -->
  <rect x="60" y="253" width="160" height="30" rx="5" fill="#1e2d4d" stroke="#4477bb" stroke-width="1"/>
  <text x="140" y="273" text-anchor="middle" fill="#aaccee" font-size="12" font-family="sans-serif">Output Projection</text>
  <line x1="140" y1="283" x2="140" y2="294" stroke="#999" stroke-width="1.5" marker-end="url(#ah)"/>

  <!-- Add 1 -->
  <circle cx="140" cy="306" r="12" fill="#222" stroke="#999" stroke-width="1.5"/>
  <text x="140" y="311" text-anchor="middle" fill="#ccc" font-size="15" font-family="sans-serif" font-weight="bold">+</text>
  <line x1="140" y1="318" x2="140" y2="342" stroke="#999" stroke-width="1.5" marker-end="url(#ah)"/>

  <!-- Residual 2 -->
  <line x1="140" y1="330" x2="280" y2="330" stroke="#555" stroke-width="1.5" stroke-dasharray="5,4"/>
  <line x1="280" y1="330" x2="280" y2="586" stroke="#555" stroke-width="1.5" stroke-dasharray="5,4"/>
  <line x1="280" y1="586" x2="157" y2="586" stroke="#555" stroke-width="1.5" stroke-dasharray="5,4" marker-end="url(#ah)"/>
  <text x="290" y="460" fill="#666" font-size="10" font-family="sans-serif" transform="rotate(90,290,460)">residual</text>

  <!-- RMSNorm2 -->
  <rect x="60" y="345" width="160" height="30" rx="5" fill="#333" stroke="#777" stroke-width="1"/>
  <text x="140" y="365" text-anchor="middle" fill="#ccc" font-size="12" font-family="sans-serif">RMSNorm 2</text>
  <line x1="140" y1="375" x2="140" y2="393" stroke="#999" stroke-width="1.5" marker-end="url(#ah)"/>

  <!-- Gate + Up Proj -->
  <rect x="60" y="396" width="160" height="30" rx="5" fill="#1e3d2d" stroke="#44aa66" stroke-width="1"/>
  <text x="140" y="416" text-anchor="middle" fill="#aaeebb" font-size="12" font-family="sans-serif">Gate &amp; Up Proj (512→1408)</text>
  <line x1="140" y1="426" x2="140" y2="444" stroke="#999" stroke-width="1.5" marker-end="url(#ah)"/>

  <!-- SiLU + multiply -->
  <rect x="60" y="447" width="160" height="30" rx="5" fill="#1e3d2d" stroke="#44aa66" stroke-width="1"/>
  <text x="140" y="467" text-anchor="middle" fill="#aaeebb" font-size="12" font-family="sans-serif">SiLU(gate) &#x2299; up</text>
  <line x1="140" y1="477" x2="140" y2="495" stroke="#999" stroke-width="1.5" marker-end="url(#ah)"/>

  <!-- Down Proj -->
  <rect x="60" y="498" width="160" height="30" rx="5" fill="#1e3d2d" stroke="#44aa66" stroke-width="1"/>
  <text x="140" y="518" text-anchor="middle" fill="#aaeebb" font-size="12" font-family="sans-serif">Down Proj (1408→512)</text>
  <line x1="140" y1="528" x2="140" y2="574" stroke="#999" stroke-width="1.5" marker-end="url(#ah)"/>

  <!-- Add 2 -->
  <circle cx="140" cy="586" r="12" fill="#222" stroke="#999" stroke-width="1.5"/>
  <text x="140" y="591" text-anchor="middle" fill="#ccc" font-size="15" font-family="sans-serif" font-weight="bold">+</text>
  <line x1="140" y1="598" x2="140" y2="622" stroke="#999" stroke-width="1.5" marker-end="url(#ah)"/>

  <!-- Output label -->
  <text x="140" y="640" text-anchor="middle" fill="#ccc" font-size="13" font-family="monospace">output (seq_len, 512)</text>
</svg>