<svg width="660" height="310" viewBox="0 0 660 310" xmlns="http://www.w3.org/2000/svg"
     style="display:block; margin:20px auto; font-family:monospace;">
  <rect width="660" height="310" fill="#222" rx="8"/>

  <!-- Column headers -->
  <text x="108" y="18" fill="#666" font-size="9" text-anchor="middle">pos 0</text>
  <text x="248" y="18" fill="#666" font-size="9" text-anchor="middle">pos 1</text>
  <text x="388" y="18" fill="#666" font-size="9" text-anchor="middle">pos 2</text>
  <text x="528" y="18" fill="#666" font-size="9" text-anchor="middle">pos 3</text>

  <!-- Row 1: Draft tokens -->
  <text x="16" y="42" fill="#888" font-size="10">draft</text>
  <rect x="56" y="28" width="104" height="24" rx="4" fill="#1e3a5f" stroke="#4477bb" stroke-width="1.5"/>
  <text x="108" y="45" text-anchor="middle" fill="#8ec4f0" font-size="11">t&#x2080;</text>
  <rect x="196" y="28" width="104" height="24" rx="4" fill="#1e3a5f" stroke="#4477bb" stroke-width="1.5"/>
  <text x="248" y="45" text-anchor="middle" fill="#8ec4f0" font-size="11">t&#x2081;</text>
  <rect x="336" y="28" width="104" height="24" rx="4" fill="#1e3a5f" stroke="#4477bb" stroke-width="1.5"/>
  <text x="388" y="45" text-anchor="middle" fill="#8ec4f0" font-size="11">t&#x2082;</text>
  <rect x="476" y="28" width="104" height="24" rx="4" fill="#1e3a5f" stroke="#4477bb" stroke-width="1.5"/>
  <text x="528" y="45" text-anchor="middle" fill="#8ec4f0" font-size="11">t&#x2083;</text>

  <!-- Row 2: Probabilities -->
  <text x="16" y="76" fill="#888" font-size="10">probs</text>
  <rect x="56" y="62" width="104" height="34" rx="4" fill="#1a1a1a" stroke="#666" stroke-width="1"/>
  <text x="108" y="76" text-anchor="middle" fill="#c060e0" font-size="9">p(t&#x2080;) = 0.60</text>
  <text x="108" y="89" text-anchor="middle" fill="#e0a040" font-size="9">q(t&#x2080;) = 0.50</text>

  <rect x="196" y="62" width="104" height="34" rx="4" fill="#1a1a1a" stroke="#666" stroke-width="1"/>
  <text x="248" y="76" text-anchor="middle" fill="#c060e0" font-size="9">p(t&#x2081;) = 0.50</text>
  <text x="248" y="89" text-anchor="middle" fill="#e0a040" font-size="9">q(t&#x2081;) = 0.20</text>

  <rect x="336" y="62" width="104" height="34" rx="4" fill="#2a2a2a" stroke="#555" stroke-width="1"/>
  <text x="388" y="80" text-anchor="middle" fill="#555" font-size="9">not reached</text>

  <rect x="476" y="62" width="104" height="34" rx="4" fill="#2a2a2a" stroke="#555" stroke-width="1"/>
  <text x="528" y="80" text-anchor="middle" fill="#555" font-size="9">not reached</text>

  <!-- Row 3: Alpha + accept/reject -->
  <text x="16" y="124" fill="#888" font-size="10">&#x3b1;, test</text>
  <rect x="56" y="108" width="104" height="40" rx="4" fill="#1a3a1a" stroke="#44aa66" stroke-width="1.5"/>
  <text x="108" y="124" text-anchor="middle" fill="#aaa" font-size="9">&#x3b1; = .50/.60 = .83</text>
  <text x="108" y="140" text-anchor="middle" fill="#44aa66" font-size="9">u=0.1 &lt; .83 &#x2713;</text>

  <rect x="196" y="108" width="104" height="40" rx="4" fill="#4a1a1a" stroke="#e06060" stroke-width="1.5"/>
  <text x="248" y="124" text-anchor="middle" fill="#aaa" font-size="9">&#x3b1; = .20/.50 = .40</text>
  <text x="248" y="140" text-anchor="middle" fill="#e06060" font-size="9">u=0.7 &#x2265; .40 &#x2717;</text>

  <rect x="336" y="108" width="104" height="40" rx="4" fill="#2a2a2a" stroke="#555" stroke-width="1"/>
  <text x="388" y="132" text-anchor="middle" fill="#555" font-size="9">skipped</text>

  <rect x="476" y="108" width="104" height="40" rx="4" fill="#2a2a2a" stroke="#555" stroke-width="1"/>
  <text x="528" y="132" text-anchor="middle" fill="#555" font-size="9">skipped</text>

  <!-- Row 4: Resample box -->
  <rect x="56" y="164" width="524" height="38" rx="5" fill="#1a1a1a" stroke="#e06060" stroke-width="1"/>
  <text x="318" y="180" text-anchor="middle" fill="#e06060" font-size="10">reject at pos 1 &#x2192; stop, resample from adj(v) = max(0, q(v) &#x2212; p(v))</text>
  <text x="318" y="194" text-anchor="middle" fill="#aaa" font-size="9">normalize adj, inverse-CDF sample using u[b, T] &#x2192; replacement token t&#x2081;&#x2032;</text>

  <!-- Row 5: Output tokens -->
  <text x="16" y="224" fill="#888" font-size="10">output</text>
  <rect x="56" y="212" width="104" height="24" rx="4" fill="#1e3a5f" stroke="#4477bb" stroke-width="1.5"/>
  <text x="108" y="229" text-anchor="middle" fill="#8ec4f0" font-size="11">t&#x2080;</text>
  <rect x="196" y="212" width="104" height="24" rx="4" fill="#3a2010" stroke="#e0a040" stroke-width="1.5"/>
  <text x="248" y="229" text-anchor="middle" fill="#f0b060" font-size="11">t&#x2081;&#x2032;</text>
  <rect x="336" y="212" width="104" height="24" rx="4" fill="#2a2a2a" stroke="#555" stroke-width="1"/>
  <text x="388" y="229" text-anchor="middle" fill="#555" font-size="11">0</text>
  <rect x="476" y="212" width="104" height="24" rx="4" fill="#2a2a2a" stroke="#555" stroke-width="1"/>
  <text x="528" y="229" text-anchor="middle" fill="#555" font-size="11">0</text>

  <!-- Legend -->
  <text x="16" y="260" fill="#c060e0" font-size="9">p = draft prob</text>
  <text x="130" y="260" fill="#e0a040" font-size="9">q = target prob</text>
  <text x="260" y="260" fill="#aaa" font-size="9">&#x3b1; = min(1, q/p)</text>
  <text x="400" y="260" fill="#44aa66" font-size="9">&#x25a0; accepted</text>
  <text x="490" y="260" fill="#e0a040" font-size="9">&#x25a0; resampled</text>
  <text x="590" y="260" fill="#555" font-size="9">&#x25a0; pad</text>

  <!-- All-accept note -->
  <text x="330" y="290" text-anchor="middle" fill="#888" font-size="9">If all T tokens accepted: sample bonus token from q at last position using u[b, T]</text>
</svg>