<svg width="700" height="180" viewBox="0 0 700 180" style="display:block; margin:20px auto;" xmlns="http://www.w3.org/2000/svg">
  <rect width="700" height="180" fill="#222" rx="10"/>
  <!-- SSM chain diagram -->
  <!-- State boxes -->
  <rect x="55" y="70" width="60" height="40" rx="6" fill="#1a3a5c" stroke="#4a90d9" stroke-width="1.5"/>
  <text x="85" y="95" fill="#4a90d9" font-family="monospace" font-size="13" text-anchor="middle">h₀</text>

  <rect x="195" y="70" width="60" height="40" rx="6" fill="#1a3a5c" stroke="#4a90d9" stroke-width="1.5"/>
  <text x="225" y="95" fill="#4a90d9" font-family="monospace" font-size="13" text-anchor="middle">h₁</text>

  <rect x="335" y="70" width="60" height="40" rx="6" fill="#1a3a5c" stroke="#4a90d9" stroke-width="1.5"/>
  <text x="365" y="95" fill="#4a90d9" font-family="monospace" font-size="13" text-anchor="middle">h₂</text>

  <rect x="475" y="70" width="60" height="40" rx="6" fill="#1a3a5c" stroke="#4a90d9" stroke-width="1.5"/>
  <text x="505" y="95" fill="#4a90d9" font-family="monospace" font-size="13" text-anchor="middle">h₃</text>

  <!-- Recurrence arrows -->
  <line x1="115" y1="90" x2="193" y2="90" stroke="#4a90d9" stroke-width="1.5" marker-end="url(#arr)"/>
  <line x1="255" y1="90" x2="333" y2="90" stroke="#4a90d9" stroke-width="1.5" marker-end="url(#arr)"/>
  <line x1="395" y1="90" x2="473" y2="90" stroke="#4a90d9" stroke-width="1.5" marker-end="url(#arr)"/>
  <text x="153" y="83" fill="#ccc" font-family="monospace" font-size="10" text-anchor="middle">Ā</text>
  <text x="293" y="83" fill="#ccc" font-family="monospace" font-size="10" text-anchor="middle">Ā</text>
  <text x="433" y="83" fill="#ccc" font-family="monospace" font-size="10" text-anchor="middle">Ā</text>

  <!-- Input arrows (u into h) -->
  <line x1="85" y1="155" x2="85" y2="112" stroke="#5cb85c" stroke-width="1.5" marker-end="url(#garr)"/>
  <line x1="225" y1="155" x2="225" y2="112" stroke="#5cb85c" stroke-width="1.5" marker-end="url(#garr)"/>
  <line x1="365" y1="155" x2="365" y2="112" stroke="#5cb85c" stroke-width="1.5" marker-end="url(#garr)"/>
  <line x1="505" y1="155" x2="505" y2="112" stroke="#5cb85c" stroke-width="1.5" marker-end="url(#garr)"/>
  <text x="85" y="168" fill="#5cb85c" font-family="monospace" font-size="11" text-anchor="middle">B̄u₀</text>
  <text x="225" y="168" fill="#5cb85c" font-family="monospace" font-size="11" text-anchor="middle">B̄u₁</text>
  <text x="365" y="168" fill="#5cb85c" font-family="monospace" font-size="11" text-anchor="middle">B̄u₂</text>
  <text x="505" y="168" fill="#5cb85c" font-family="monospace" font-size="11" text-anchor="middle">B̄u₃</text>

  <!-- Output arrows (h to y) -->
  <line x1="85" y1="68" x2="85" y2="30" stroke="#e87c2e" stroke-width="1.5" marker-end="url(#oarr)"/>
  <line x1="225" y1="68" x2="225" y2="30" stroke="#e87c2e" stroke-width="1.5" marker-end="url(#oarr)"/>
  <line x1="365" y1="68" x2="365" y2="30" stroke="#e87c2e" stroke-width="1.5" marker-end="url(#oarr)"/>
  <line x1="505" y1="68" x2="505" y2="30" stroke="#e87c2e" stroke-width="1.5" marker-end="url(#oarr)"/>
  <text x="85" y="22" fill="#e87c2e" font-family="monospace" font-size="11" text-anchor="middle">y₀</text>
  <text x="225" y="22" fill="#e87c2e" font-family="monospace" font-size="11" text-anchor="middle">y₁</text>
  <text x="365" y="22" fill="#e87c2e" font-family="monospace" font-size="11" text-anchor="middle">y₂</text>
  <text x="505" y="22" fill="#e87c2e" font-family="monospace" font-size="11" text-anchor="middle">y₃</text>

  <!-- Continuation arrow -->
  <line x1="535" y1="90" x2="590" y2="90" stroke="#4a90d9" stroke-width="1.5" stroke-dasharray="4,3" marker-end="url(#arr)"/>

  <!-- Arrow markers -->
  <defs>
    <marker id="arr" markerWidth="8" markerHeight="6" refX="8" refY="3" orient="auto">
      <polygon points="0 0, 8 3, 0 6" fill="#4a90d9"/>
    </marker>
    <marker id="garr" markerWidth="8" markerHeight="6" refX="8" refY="3" orient="auto">
      <polygon points="0 0, 8 3, 0 6" fill="#5cb85c"/>
    </marker>
    <marker id="oarr" markerWidth="8" markerHeight="6" refX="8" refY="3" orient="auto">
      <polygon points="0 0, 8 3, 0 6" fill="#e87c2e"/>
    </marker>
  </defs>
</svg>